<svg width="14" height="14" viewBox="0 0 14 14" fill="none" xmlns="http://www.w3.org/2000/svg">
<path d="M11.1096 4.31724C11.3301 4.09674 11.4514 3.80391 11.4514 3.49241C11.4514 3.18091 11.3301 2.88807 11.1096 2.66757L10.1844 1.74241C9.96389 1.52191 9.67106 1.40057 9.35956 1.40057C9.04806 1.40057 8.75523 1.52191 8.53531 1.74182L2.33331 7.92457V10.5H4.90756L11.1096 4.31724ZM9.35956 2.56724L10.2853 3.49182L9.35781 4.41582L8.43265 3.49124L9.35956 2.56724ZM3.49998 9.33332V8.40874L7.60665 4.31491L8.53181 5.24007L4.42573 9.33332H3.49998ZM2.33331 11.6667H11.6666V12.8333H2.33331V11.6667Z" fill="#1C2A3A"/>
</svg>
