<svg width="12" height="12" viewBox="0 0 12 12" fill="none" xmlns="http://www.w3.org/2000/svg">
<path d="M6 7C7.103 7 8 6.103 8 5C8 3.897 7.103 3 6 3C4.897 3 4 3.897 4 5C4 6.103 4.897 7 6 7ZM6 4C6.5515 4 7 4.4485 7 5C7 5.5515 6.5515 6 6 6C5.4485 6 5 5.5515 5 5C5 4.4485 5.4485 4 6 4Z" fill="#221824"/>
<path d="M5.70998 10.907C5.79461 10.9674 5.896 10.9999 5.99998 10.9999C6.10397 10.9999 6.20536 10.9674 6.28998 10.907C6.44198 10.7995 10.0145 8.22 9.99998 5C9.99998 2.7945 8.20548 1 5.99998 1C3.79448 1 1.99998 2.7945 1.99998 4.9975C1.98548 8.22 5.55798 10.7995 5.70998 10.907ZM5.99998 2C7.65448 2 8.99998 3.3455 8.99998 5.0025C9.01048 7.2215 6.80598 9.214 5.99998 9.8675C5.19448 9.2135 2.98948 7.2205 2.99998 5C2.99998 3.3455 4.34548 2 5.99998 2Z" fill="#221824"/>
</svg>
