<svg width="16" height="17" viewBox="0 0 16 17" fill="none" xmlns="http://www.w3.org/2000/svg">
<path d="M6.66667 12.0139C7.84999 12.0136 8.99921 11.6175 9.93134 10.8885L12.862 13.8192L13.8047 12.8765L10.874 9.94587C11.6033 9.01364 11.9997 7.86416 12 6.68053C12 3.73987 9.60734 1.3472 6.66667 1.3472C3.726 1.3472 1.33334 3.73987 1.33334 6.68053C1.33334 9.6212 3.726 12.0139 6.66667 12.0139ZM6.66667 2.68053C8.87267 2.68053 10.6667 4.47453 10.6667 6.68053C10.6667 8.88653 8.87267 10.6805 6.66667 10.6805C4.46067 10.6805 2.66667 8.88653 2.66667 6.68053C2.66667 4.47453 4.46067 2.68053 6.66667 2.68053Z" fill="#242565"/>
<path d="M7.608 5.73785C7.86067 5.99118 8 6.32585 8 6.68052H9.33334C9.33393 6.33014 9.26506 5.98311 9.13072 5.65951C8.99638 5.3359 8.79923 5.04213 8.55067 4.79518C7.54134 3.78718 5.79134 3.78718 4.78267 4.79518L5.724 5.73918C6.23067 5.23385 7.104 5.23518 7.608 5.73785Z" fill="#242565"/>
</svg>
