<svg width="40" height="40" viewBox="0 0 40 40" fill="none" xmlns="http://www.w3.org/2000/svg">
<path d="M28.6545 8.26665C28.6545 8.28332 28.6545 8.28332 28.6545 8.29999C28.2378 8.28332 27.8211 8.26665 27.3711 8.26665H14.5377L16.3211 6.49999C17.9545 4.84999 19.7545 3.33332 21.8378 3.33332C23.9378 3.33332 25.7378 4.84999 27.3711 6.49999L28.3045 7.43332C28.5378 7.64999 28.6545 7.94999 28.6545 8.26665Z" fill="#221824"/>
<path d="M34.7348 21.9487C35.3848 21.9487 35.9015 21.4153 35.9015 20.7487V19.282C35.9015 12.732 33.9015 10.7487 27.3682 10.7487H16.8682H12.6349C6.10156 10.7487 4.10156 12.7487 4.10156 19.282V19.9987C4.10156 20.6653 4.61823 21.182 5.26823 21.182C6.66823 21.182 7.7849 22.3153 7.7849 23.6987C7.7849 25.082 6.66823 26.232 5.26823 26.232C4.61823 26.232 4.10156 26.7487 4.10156 27.4153V28.132C4.10156 34.682 6.10156 36.6653 12.6349 36.6653H16.8515H27.3515C33.8848 36.6653 35.8848 34.6653 35.8848 28.132C35.8848 27.482 35.3682 26.9487 34.7182 26.9487C33.3182 26.9487 32.2015 25.832 32.2015 24.4487C32.2182 23.0653 33.3348 21.9487 34.7348 21.9487ZM18.0348 31.432C18.0348 32.082 17.5015 32.6153 16.8515 32.6153C16.2016 32.6153 15.6682 32.082 15.6682 31.432V26.9653C15.6682 26.3153 16.2016 25.782 16.8515 25.782C17.5015 25.782 18.0348 26.3153 18.0348 26.9653V31.432ZM18.0348 20.4487C18.0348 21.0987 17.5015 21.632 16.8515 21.632C16.2016 21.632 15.6682 21.0987 15.6682 20.4487V15.982C15.6682 15.332 16.2016 14.7987 16.8515 14.7987C17.5015 14.7987 18.0348 15.332 18.0348 15.982V20.4487Z" fill="#221824"/>
</svg>
