<svg width="14" height="14" viewBox="0 0 14 14" fill="none" xmlns="http://www.w3.org/2000/svg">
<g clip-path="url(#clip0_44_119)">
<path d="M12.25 8.75V10.5H14V11.6667H12.25V13.4167H11.0834V11.6667H9.33335V10.5H11.0834V8.75H12.25ZM12.2547 1.75C12.5744 1.75 12.8334 2.00958 12.8334 2.32925V7.78283C12.4586 7.65047 12.0641 7.583 11.6667 7.58333V2.91667H2.33335L2.33394 11.0833L7.75427 5.66242C7.85458 5.56178 7.9882 5.50126 8.13 5.49224C8.2718 5.48321 8.41201 5.52631 8.52427 5.61342L8.57852 5.663L10.647 7.73383C10.1947 7.87166 9.77503 8.09965 9.41324 8.40406C9.05144 8.70847 8.75505 9.083 8.54191 9.50507C8.32878 9.92713 8.20334 10.388 8.17313 10.8598C8.14293 11.3317 8.2086 11.8048 8.36619 12.2506L1.74535 12.25C1.59183 12.2498 1.44464 12.1887 1.33614 12.0801C1.22763 11.9715 1.16669 11.8243 1.16669 11.6707V2.32925C1.16775 2.17605 1.22905 2.02943 1.33732 1.92104C1.44559 1.81266 1.59216 1.75122 1.74535 1.75H12.2547ZM4.66669 4.08333C4.97611 4.08333 5.27285 4.20625 5.49164 4.42504C5.71044 4.64383 5.83335 4.94058 5.83335 5.25C5.83335 5.55942 5.71044 5.85616 5.49164 6.07496C5.27285 6.29375 4.97611 6.41667 4.66669 6.41667C4.35727 6.41667 4.06052 6.29375 3.84173 6.07496C3.62294 5.85616 3.50002 5.55942 3.50002 5.25C3.50002 4.94058 3.62294 4.64383 3.84173 4.42504C4.06052 4.20625 4.35727 4.08333 4.66669 4.08333Z" fill="#1C2A3A"/>
</g>
<defs>
<clipPath id="clip0_44_119">
<rect width="14" height="14" fill="white"/>
</clipPath>
</defs>
</svg>
