<svg width="14" height="14" viewBox="0 0 14 14" fill="none" xmlns="http://www.w3.org/2000/svg">
<path d="M2.91844 11.6667C2.91844 12.3101 3.44169 12.8333 4.0851 12.8333H9.91844C10.5619 12.8333 11.0851 12.3101 11.0851 11.6667V4.66666H12.2518V3.49999H9.91844V2.33332C9.91844 1.68991 9.39519 1.16666 8.75177 1.16666H5.25177C4.60835 1.16666 4.0851 1.68991 4.0851 2.33332V3.49999H1.75177V4.66666H2.91844V11.6667ZM5.25177 2.33332H8.75177V3.49999H5.25177V2.33332ZM4.66844 4.66666H9.91844L9.91902 11.6667H4.0851V4.66666H4.66844Z" fill="#1C2A3A"/>
<path d="M5.25177 5.83331H6.41844V10.5H5.25177V5.83331ZM7.5851 5.83331H8.75177V10.5H7.5851V5.83331Z" fill="#1C2A3A"/>
</svg>
