<svg width="34" height="34" viewBox="0 0 34 34" fill="none" xmlns="http://www.w3.org/2000/svg">
<path fill-rule="evenodd" clip-rule="evenodd" d="M15.7756 0.418615L0.775573 12.0328C0.286359 12.4115 0 12.9954 0 13.6141V31.6936C0 32.7981 0.895431 33.6936 2 33.6936H32C33.1046 33.6936 34 32.7981 34 31.6936V13.6141C34 12.9954 33.7136 12.4115 33.2244 12.0328L18.2244 0.418616C17.5036 -0.139538 16.4964 -0.139539 15.7756 0.418615ZM6.66666 25.796C6.11437 25.796 5.66666 26.2437 5.66666 26.796V27.4285C5.66666 27.9808 6.11437 28.4285 6.66666 28.4285H27.3333C27.8856 28.4285 28.3333 27.9808 28.3333 27.4285V26.796C28.3333 26.2437 27.8856 25.796 27.3333 25.796H6.66666Z" fill="#221824"/>
</svg>
