<svg xmlns="http://www.w3.org/2000/svg">
  <symbol id="icon-logo" viewBox="0 0 40 40" fill="none" xmlns="http://www.w3.org/2000/svg">
    <path d="M28.6545 8.26665C28.6545 8.28332 28.6545 8.28332 28.6545 8.29999C28.2378 8.28332 27.8211 8.26665 27.3711 8.26665H14.5377L16.3211 6.49999C17.9545 4.84999 19.7545 3.33332 21.8378 3.33332C23.9378 3.33332 25.7378 4.84999 27.3711 6.49999L28.3045 7.43332C28.5378 7.64999 28.6545 7.94999 28.6545 8.26665Z" fill="currentColor"/>
    <path d="M34.7348 21.9487C35.3848 21.9487 35.9015 21.4153 35.9015 20.7487V19.282C35.9015 12.732 33.9015 10.7487 27.3682 10.7487H16.8682H12.6349C6.10156 10.7487 4.10156 12.7487 4.10156 19.282V19.9987C4.10156 20.6653 4.61823 21.182 5.26823 21.182C6.66823 21.182 7.7849 22.3153 7.7849 23.6987C7.7849 25.082 6.66823 26.232 5.26823 26.232C4.61823 26.232 4.10156 26.7487 4.10156 27.4153V28.132C4.10156 34.682 6.10156 36.6653 12.6349 36.6653H16.8515H27.3515C33.8848 36.6653 35.8848 34.6653 35.8848 28.132C35.8848 27.482 35.3682 26.9487 34.7182 26.9487C33.3182 26.9487 32.2015 25.832 32.2015 24.4487C32.2182 23.0653 33.3348 21.9487 34.7348 21.9487ZM18.0348 31.432C18.0348 32.082 17.5015 32.6153 16.8515 32.6153C16.2016 32.6153 15.6682 32.082 15.6682 31.432V26.9653C15.6682 26.3153 16.2016 25.782 16.8515 25.782C17.5015 25.782 18.0348 26.3153 18.0348 26.9653V31.432ZM18.0348 20.4487C18.0348 21.0987 17.5015 21.632 16.8515 21.632C16.2016 21.632 15.6682 21.0987 15.6682 20.4487V15.982C15.6682 15.332 16.2016 14.7987 16.8515 14.7987C17.5015 14.7987 18.0348 15.332 18.0348 15.982V20.4487Z" fill="currentColor"/>
  </symbol>
  <symbol id="icon-bookmark" viewBox="0 0 34 34" fill="none" xmlns="http://www.w3.org/2000/svg">
    <path d="M33.5 0H0.5C0.223858 0 0 0.223858 0 0.5V16.2609V33.1752C0 33.5506 0.3984 33.7921 0.731283 33.6185L16.7687 25.2511C16.9136 25.1755 17.0864 25.1755 17.2313 25.2511L33.2687 33.6185C33.6016 33.7921 34 33.5506 34 33.1752V16.2609V0.5C34 0.223858 33.7761 0 33.5 0Z" fill="currentColor" stroke="currentColor"/>
    <clipPath id="clip0_44_27">
      <rect width="34" height="34" fill="white"/>
    </clipPath>
  </symbol>
  <symbol id="icon-account" viewBox="0 0 34 34" fill="none" xmlns="http://www.w3.org/2000/svg">
    <path fill-rule="evenodd" clip-rule="evenodd" d="M15.7756 0.418615L0.775573 12.0328C0.286359 12.4115 0 12.9954 0 13.6141V31.6936C0 32.7981 0.895431 33.6936 2 33.6936H32C33.1046 33.6936 34 32.7981 34 31.6936V13.6141C34 12.9954 33.7136 12.4115 33.2244 12.0328L18.2244 0.418616C17.5036 -0.139538 16.4964 -0.139539 15.7756 0.418615ZM6.66666 25.796C6.11437 25.796 5.66666 26.2437 5.66666 26.796V27.4285C5.66666 27.9808 6.11437 28.4285 6.66666 28.4285H27.3333C27.8856 28.4285 28.3333 27.9808 28.3333 27.4285V26.796C28.3333 26.2437 27.8856 25.796 27.3333 25.796H6.66666Z" fill="currentColor"/>
  </symbol>
  <symbol id="icon-notification" viewBox="0 0 34 35" fill="none" xmlns="http://www.w3.org/2000/svg">
    <path d="M18 1V5" stroke="#221824" stroke-linecap="round"/>
    <path d="M7 1L7 13" stroke="#221824" stroke-linecap="round"/>
    <path d="M29 1V13" stroke="#221824" stroke-linecap="round"/>
    <path d="M20.5496 19.1184L20.6759 19.4311H21.0132H32.1529L23.2412 24.6372L22.8678 24.8553L23.0298 25.2562L26.4943 33.8296L17.2522 28.4305L17 28.2832L16.7478 28.4305L7.50566 33.8296L10.9702 25.2562L11.1322 24.8553L10.7588 24.6372L1.84714 19.4311L12.9868 19.4311H13.3241L13.4504 19.1184L17 10.3345L20.5496 19.1184Z" fill="currentColor" stroke="currentColor"/>
  </symbol>
  <symbol id="icon-send" width="20" height="20" viewBox="0 0 20 21" fill="none" xmlns="http://www.w3.org/2000/svg">
    <rect x="0.5" y="0.930603" width="19" height="19" rx="4.5" stroke="currentColor"/>
    <path d="M15.4191 10.4306L5.86557 15.415L7.42164 10.7468C7.49006 10.5416 7.49006 10.3196 7.42164 10.1144L5.86557 5.44617L15.4191 10.4306Z" stroke="currentColor"/>
    <clipPath id="clip0_45_244">
      <rect width="20" height="20" fill="white" transform="translate(0 0.430603)"/>
    </clipPath>
  </symbol>
  <symbol id="icon-calendar" width="12" height="12" viewBox="0 0 12 12" fill="none" xmlns="http://www.w3.org/2000/svg">
    <path d="M3.5 5.5H4.5V6.5H3.5V5.5ZM3.5 7.5H4.5V8.5H3.5V7.5ZM5.5 5.5H6.5V6.5H5.5V5.5ZM5.5 7.5H6.5V8.5H5.5V7.5ZM7.5 5.5H8.5V6.5H7.5V5.5ZM7.5 7.5H8.5V8.5H7.5V7.5Z" fill="currentColor"/>
    <path d="M2.5 11H9.5C10.0515 11 10.5 10.5515 10.5 10V3C10.5 2.4485 10.0515 2 9.5 2H8.5V1H7.5V2H4.5V1H3.5V2H2.5C1.9485 2 1.5 2.4485 1.5 3V10C1.5 10.5515 1.9485 11 2.5 11ZM9.5 4L9.5005 10H2.5V4H9.5Z" fill="currentColor"/>
  </symbol>
  <symbol id="icon-edit" width="14" height="14" viewBox="0 0 14 14" fill="none" xmlns="http://www.w3.org/2000/svg">
    <path d="M11.1096 4.31724C11.3301 4.09674 11.4514 3.80391 11.4514 3.49241C11.4514 3.18091 11.3301 2.88807 11.1096 2.66757L10.1844 1.74241C9.96389 1.52191 9.67106 1.40057 9.35956 1.40057C9.04806 1.40057 8.75523 1.52191 8.53531 1.74182L2.33331 7.92457V10.5H4.90756L11.1096 4.31724ZM9.35956 2.56724L10.2853 3.49182L9.35781 4.41582L8.43265 3.49124L9.35956 2.56724ZM3.49998 9.33332V8.40874L7.60665 4.31491L8.53181 5.24007L4.42573 9.33332H3.49998ZM2.33331 11.6667H11.6666V12.8333H2.33331V11.6667Z" fill="#1C2A3A"/>
  </symbol>
  <symbol id="icon-delete" width="14" height="14" viewBox="0 0 14 14" fill="none" xmlns="http://www.w3.org/2000/svg">
    <path d="M2.91844 11.6667C2.91844 12.3101 3.44169 12.8333 4.0851 12.8333H9.91844C10.5619 12.8333 11.0851 12.3101 11.0851 11.6667V4.66666H12.2518V3.49999H9.91844V2.33332C9.91844 1.68991 9.39519 1.16666 8.75177 1.16666H5.25177C4.60835 1.16666 4.0851 1.68991 4.0851 2.33332V3.49999H1.75177V4.66666H2.91844V11.6667ZM5.25177 2.33332H8.75177V3.49999H5.25177V2.33332ZM4.66844 4.66666H9.91844L9.91902 11.6667H4.0851V4.66666H4.66844Z" fill="#1C2A3A"/>
    <path d="M5.25177 5.83331H6.41844V10.5H5.25177V5.83331ZM7.5851 5.83331H8.75177V10.5H7.5851V5.83331Z" fill="#1C2A3A"/>
  </symbol>
  <symbol id="icon-map" width="12" height="12" viewBox="0 0 12 12" fill="none" xmlns="http://www.w3.org/2000/svg">
    <path d="M6 7C7.103 7 8 6.103 8 5C8 3.897 7.103 3 6 3C4.897 3 4 3.897 4 5C4 6.103 4.897 7 6 7ZM6 4C6.5515 4 7 4.4485 7 5C7 5.5515 6.5515 6 6 6C5.4485 6 5 5.5515 5 5C5 4.4485 5.4485 4 6 4Z" fill="currentColor"/>
    <path d="M5.70998 10.907C5.79461 10.9674 5.896 10.9999 5.99998 10.9999C6.10397 10.9999 6.20536 10.9674 6.28998 10.907C6.44198 10.7995 10.0145 8.22 9.99998 5C9.99998 2.7945 8.20548 1 5.99998 1C3.79448 1 1.99998 2.7945 1.99998 4.9975C1.98548 8.22 5.55798 10.7995 5.70998 10.907ZM5.99998 2C7.65448 2 8.99998 3.3455 8.99998 5.0025C9.01048 7.2215 6.80598 9.214 5.99998 9.8675C5.19448 9.2135 2.98948 7.2205 2.99998 5C2.99998 3.3455 4.34548 2 5.99998 2Z" fill="currentColor"/>
  </symbol>
  <symbol id="icon-add" width="14" height="14" viewBox="0 0 14 14" fill="none" xmlns="http://www.w3.org/2000/svg">
    <path d="M12.25 8.75V10.5H14V11.6667H12.25V13.4167H11.0834V11.6667H9.33335V10.5H11.0834V8.75H12.25ZM12.2547 1.75C12.5744 1.75 12.8334 2.00958 12.8334 2.32925V7.78283C12.4586 7.65047 12.0641 7.583 11.6667 7.58333V2.91667H2.33335L2.33394 11.0833L7.75427 5.66242C7.85458 5.56178 7.9882 5.50126 8.13 5.49224C8.2718 5.48321 8.41201 5.52631 8.52427 5.61342L8.57852 5.663L10.647 7.73383C10.1947 7.87166 9.77503 8.09965 9.41324 8.40406C9.05144 8.70847 8.75505 9.083 8.54191 9.50507C8.32878 9.92713 8.20334 10.388 8.17313 10.8598C8.14293 11.3317 8.2086 11.8048 8.36619 12.2506L1.74535 12.25C1.59183 12.2498 1.44464 12.1887 1.33614 12.0801C1.22763 11.9715 1.16669 11.8243 1.16669 11.6707V2.32925C1.16775 2.17605 1.22905 2.02943 1.33732 1.92104C1.44559 1.81266 1.59216 1.75122 1.74535 1.75H12.2547ZM4.66669 4.08333C4.97611 4.08333 5.27285 4.20625 5.49164 4.42504C5.71044 4.64383 5.83335 4.94058 5.83335 5.25C5.83335 5.55942 5.71044 5.85616 5.49164 6.07496C5.27285 6.29375 4.97611 6.41667 4.66669 6.41667C4.35727 6.41667 4.06052 6.29375 3.84173 6.07496C3.62294 5.85616 3.50002 5.55942 3.50002 5.25C3.50002 4.94058 3.62294 4.64383 3.84173 4.42504C4.06052 4.20625 4.35727 4.08333 4.66669 4.08333Z" fill="#1C2A3A"/>
    <clipPath id="clip0_44_119">
      <rect width="14" height="14" fill="white"/>
    </clipPath>
  </symbol>  
  <symbol id="icon-plus" width="16" height="16" viewBox="0 0 17 16" fill="none" xmlns="http://www.w3.org/2000/svg">
    <path d="M13.1667 7.33334H9.16667V3.33334H7.83333V7.33334H3.83333V8.66668H7.83333V12.6667H9.16667V8.66668H13.1667V7.33334Z" fill="currentColor"/>
  </symbol>
  <symbol id="icon-clock" width="16" height="16" viewBox="0 0 16 16" fill="none" xmlns="http://www.w3.org/2000/svg">
    <path d="M8 1.33333C4.324 1.33333 1.33333 4.324 1.33333 8C1.33333 11.676 4.324 14.6667 8 14.6667C11.676 14.6667 14.6667 11.676 14.6667 8C14.6667 4.324 11.676 1.33333 8 1.33333ZM8 13.3333C5.05933 13.3333 2.66666 10.9407 2.66666 8C2.66666 5.05933 5.05933 2.66667 8 2.66667C10.9407 2.66667 13.3333 5.05933 13.3333 8C13.3333 10.9407 10.9407 13.3333 8 13.3333Z" fill="currentColor"/>
    <path d="M8.66666 4.66667H7.33333V8.276L9.52866 10.4713L10.4713 9.52867L8.66666 7.724V4.66667Z" fill="currentColor"/>
  </symbol>
  <symbol id="icon-arrow" width="16" height="16" viewBox="0 0 17 16" fill="none" xmlns="http://www.w3.org/2000/svg">
    <path d="M5.71866 8.66667L9.29466 12.2427L8.35199 13.1853L3.16666 8L8.352 2.81467L9.29466 3.75733L5.71866 7.33333L13.8333 7.33333L13.8333 8.66667L5.71866 8.66667Z" fill="currentColor"/>
  </symbol>
  <symbol id="icon-tick" width="12" height="9" viewBox="0 0 12 9" fill="none" xmlns="http://www.w3.org/2000/svg">
    <path d="M4.24999 6.45001L1.79999 4.00001L0.983322 4.81668L4.24999 8.08334L11.25 1.08334L10.4333 0.266678L4.24999 6.45001Z" fill="currentColor"/>
  </symbol>
  <symbol id="icon-search" width="16" height="17" viewBox="0 0 16 17" fill="none" xmlns="http://www.w3.org/2000/svg">
    <path d="M6.66667 12.0139C7.84999 12.0136 8.99921 11.6175 9.93134 10.8885L12.862 13.8192L13.8047 12.8765L10.874 9.94587C11.6033 9.01364 11.9997 7.86416 12 6.68053C12 3.73987 9.60734 1.3472 6.66667 1.3472C3.726 1.3472 1.33334 3.73987 1.33334 6.68053C1.33334 9.6212 3.726 12.0139 6.66667 12.0139ZM6.66667 2.68053C8.87267 2.68053 10.6667 4.47453 10.6667 6.68053C10.6667 8.88653 8.87267 10.6805 6.66667 10.6805C4.46067 10.6805 2.66667 8.88653 2.66667 6.68053C2.66667 4.47453 4.46067 2.68053 6.66667 2.68053Z" fill="currentColor"/>
    <path d="M7.608 5.73785C7.86067 5.99118 8 6.32585 8 6.68052H9.33334C9.33393 6.33014 9.26506 5.98311 9.13072 5.65951C8.99638 5.3359 8.79923 5.04213 8.55067 4.79518C7.54134 3.78718 5.79134 3.78718 4.78267 4.79518L5.724 5.73918C6.23067 5.23385 7.104 5.23518 7.608 5.73785Z" fill="currentColor"/>
  </symbol>
  <symbol id="icon-slide" width="24" height="43" viewBox="0 0 24 43" fill="none" xmlns="http://www.w3.org/2000/svg">
    <path d="M22 2L2.02774 21.6389L22 41.2778" stroke="currentColor" stroke-opacity="0.5" stroke-width="2.33333" stroke-linecap="round" stroke-linejoin="round"/>
  </symbol>
  
</svg>